<?xml version="1.0" encoding="iso-8859-1"?>
<!-- Uploaded to: SVG Repo, www.svgrepo.com, Generator: SVG Repo Mixer Tools -->
<svg fill="#11337f" height="800px" width="800px" version="1.1" id="Layer_1" xmlns="http://www.w3.org/2000/svg" xmlns:xlink="http://www.w3.org/1999/xlink" 
	 viewBox="0 0 512 512" xml:space="preserve">
<g>
	<g>
		<g>
			<path d="M224.001,469.333h64c5.888,0,10.667-4.779,10.667-10.667v-32c0-23.531-19.136-42.667-42.667-42.667
				s-42.667,19.136-42.667,42.667v32C213.335,464.555,218.113,469.333,224.001,469.333z M234.668,426.667
				c0-11.755,9.579-21.333,21.333-21.333s21.333,9.579,21.333,21.333V448h-42.667V426.667z"/>
			<path d="M74.668,469.333h64c5.888,0,10.667-4.779,10.667-10.667v-32c0-23.531-19.136-42.667-42.667-42.667
				c-23.531,0-42.667,19.136-42.667,42.667v32C64.001,464.555,68.78,469.333,74.668,469.333z M85.335,426.667
				c0-11.755,9.579-21.333,21.333-21.333c11.755,0,21.333,9.579,21.333,21.333V448H85.335V426.667z"/>
			<path d="M510.593,218.709l-83.925-146.88V42.667h10.667c5.888,0,10.667-4.779,10.667-10.667s-4.779-10.667-10.667-10.667h-10.667
				V10.667C426.668,4.779,421.889,0,416.001,0c-5.888,0-10.667,4.779-10.667,10.667v10.667h-10.667
				c-5.888,0-10.667,4.779-10.667,10.667s4.779,10.667,10.667,10.667h10.667v29.163l-83.925,146.88
				c-1.899,3.307-1.877,7.36,0.021,10.645c1.92,3.285,5.44,5.312,9.237,5.312h10.667V256H74.689c-3.349,0-6.528,1.579-8.533,4.267
				l-64,85.333c-0.235,0.32-0.277,0.683-0.491,1.003c-0.405,0.683-0.768,1.365-1.003,2.112c-0.213,0.64-0.299,1.28-0.384,1.941
				c-0.064,0.469-0.277,0.875-0.277,1.344v149.333C0.001,507.221,4.78,512,10.668,512h469.333c5.888,0,10.667-4.779,10.667-10.667
				V234.667h10.667c3.797,0,7.317-2.027,9.237-5.312C512.471,226.069,512.471,222.016,510.593,218.709z M341.335,490.667h-320v-128
				h320V490.667z M341.335,341.333H32.023l48-64h261.312V341.333z M469.335,490.667H362.668V266.773
				c0-0.043,0.021-0.064,0.021-0.107s-0.021-0.064-0.021-0.107v-31.893h106.667V490.667z M349.057,213.333l66.944-117.163
				l66.944,117.163H349.057z"/>
			<path d="M416.001,341.333c17.643,0,32-14.357,32-32c0-17.643-14.357-32-32-32c-17.643,0-32,14.357-32,32
				C384.001,326.976,398.359,341.333,416.001,341.333z M416.001,298.667c5.888,0,10.667,4.779,10.667,10.667
				S421.889,320,416.001,320c-5.888,0-10.667-4.779-10.667-10.667S410.113,298.667,416.001,298.667z"/>
		</g>
	</g>
</g>

</svg>
